<svg id="Layer_1" data-name="Layer 1" xmlns="http://www.w3.org/2000/svg" viewBox="0 0 485 485"><defs><style>.cls-1{fill:#4ba64a;}.cls-2{fill:#705540;}.cls-3{fill:#fff;}</style></defs><title>mongoose</title><circle class="cls-1" cx="242.5" cy="242.5" r="242.5"/><circle class="cls-2" cx="242.5" cy="242.5" r="235"/><path class="cls-1" d="M250,50V450s200,0,200-200S250,50,250,50Z" transform="translate(-7.5 -7.5)"/><path class="cls-3" d="M246.95,63.88s1.7,3.55,0,8.76-76.43,55.68-80.81,158.91S234.21,381.12,243.56,389a20.51,20.51,0,0,1,3.39,2.73s-.67,36.21,0,37.54,9.93.94,10.53,0,0-40.66,0-40.66,93.22-74.93,74.45-167.9c-3.4-25-18.6-88.31-70.78-134.6C252.81,81.19,246.95,63.88,246.95,63.88Z" transform="translate(-7.5 -7.5)"/></svg>